<svg width="77" height="77" viewBox="0 0 77 77" fill="none" xmlns="http://www.w3.org/2000/svg">
<g opacity="0.8">
<path d="M47.1214 40.3064C46.5631 40.2958 46.0175 40.1376 45.5402 39.8478L37.9502 35.3254L30.4075 39.8478C30.0514 40.0617 29.6567 40.2034 29.2458 40.2647C28.8349 40.326 28.416 40.3058 28.0129 40.2052C27.6099 40.1046 27.2306 39.9256 26.8967 39.6785C26.5628 39.4313 26.2809 39.1208 26.067 38.7647C25.8531 38.4085 25.7115 38.0138 25.6501 37.6029C25.5888 37.192 25.609 36.7731 25.7096 36.3701C25.8102 35.967 25.9892 35.5877 26.2364 35.2538C26.4835 34.9199 26.794 34.638 27.1502 34.4241L37.9502 27.941L48.7501 34.4241C49.3472 34.7784 49.8111 35.3192 50.0703 35.9633C50.3294 36.6073 50.3695 37.3187 50.1842 37.9878C49.999 38.6569 49.5987 39.2464 49.0452 39.6654C48.4917 40.0844 47.8157 40.3097 47.1214 40.3064Z" fill="#40A3F8"/>
<path d="M8.2225 75.9006C7.68249 75.888 7.14825 75.7865 6.64124 75.6002C4.74373 74.9518 2.18209 72.9911 1.10684 67.4567V67.2511C-0.0383222 58.4756 -0.282052 49.606 0.379459 40.7809C1.26496 29.5381 3.16247 24.8576 4.52236 22.3118C7.85243 16.2898 12.8412 11.3504 18.896 8.08043L19.4811 7.74836H20.161C22.2468 7.56851 24.3189 8.2233 25.9226 9.56911C27.5263 10.9149 28.5307 12.8419 28.7156 14.9273L31.467 46.1571C32.2229 51.5638 31.0289 57.0629 28.0989 61.6693C26.7707 63.6617 24.6201 65.401 20.3508 68.864C13.6778 74.3193 10.5153 75.9006 8.2225 75.9006ZM7.32118 66.4131C7.45732 67.542 7.85236 68.6243 8.4755 69.5756C11.3256 68.0772 13.9809 66.2344 16.3818 64.0886C18.7447 62.4043 20.9138 60.4633 22.8491 58.3012C24.9515 54.9027 25.7755 50.8668 25.1736 46.9161L22.4222 15.3384C22.4091 15.1262 22.3534 14.9188 22.2583 14.7286C22.1632 14.5384 22.0307 14.3693 21.8688 14.2315C21.6845 14.0797 21.4683 13.9716 21.2363 13.9153C16.5674 16.5888 12.7348 20.509 10.1674 25.2371C9.48751 26.4546 7.57418 30.0441 6.68868 41.271C6.0415 49.6513 6.25344 58.0759 7.32118 66.4131Z" fill="#40A3F8"/>
<path d="M67.6778 75.9005C65.4008 75.9005 62.2383 74.3192 55.5496 68.848C51.2802 65.3851 49.1297 63.6457 47.8014 61.6533C44.871 57.0297 43.6826 51.5138 44.4492 46.0937L47.1689 14.7848C47.3538 12.6994 48.3582 10.7725 49.9619 9.42666C51.5657 8.08085 53.6377 7.42606 55.7235 7.60591H56.4035L56.9253 8.00122C62.98 11.2712 67.9688 16.2106 71.2989 22.2326C72.6588 24.7784 74.5563 29.4747 75.4418 40.7016C76.1201 49.5304 75.8923 58.4054 74.7619 67.1877V67.3933C73.6866 72.9277 71.1882 74.8885 69.2907 75.5526C68.7765 75.7585 68.2312 75.8762 67.6778 75.9005ZM54.6641 13.9468C54.4321 14.0031 54.2158 14.1112 54.0316 14.263C53.7119 14.5339 53.5129 14.9207 53.4781 15.3383L50.7267 46.7104C50.115 50.6815 50.9392 54.7407 53.0512 58.1587C54.9866 60.3208 57.1556 62.2618 59.5185 63.9461C61.9194 66.0919 64.5747 67.9347 67.4248 69.4331C68.048 68.4819 68.443 67.3996 68.5792 66.2706C69.6426 57.9543 69.8545 49.5512 69.2117 41.1918C68.3262 30.044 66.4128 26.4545 65.7961 25.3002C63.217 20.5515 59.3611 16.6189 54.6641 13.9468Z" fill="#40A3F8"/>
<g filter="url(#filter0_b_1_394)">
<path d="M36.96 33.88C36.1432 33.88 35.3598 33.5555 34.7822 32.9779C34.2045 32.4003 33.88 31.6169 33.88 30.8V3.08C33.88 2.26313 34.2045 1.47972 34.7822 0.902111C35.3598 0.324499 36.1432 0 36.96 0C37.7769 0 38.5603 0.324499 39.1379 0.902111C39.7155 1.47972 40.04 2.26313 40.04 3.08V30.8C40.04 31.6169 39.7155 32.4003 39.1379 32.9779C38.5603 33.5555 37.7769 33.88 36.96 33.88Z" fill="#40A3F8"/>
</g>
</g>
<defs>
<filter id="filter0_b_1_394" x="8.88004" y="-25" width="56.16" height="83.88" filterUnits="userSpaceOnUse" color-interpolation-filters="sRGB">
<feFlood flood-opacity="0" result="BackgroundImageFix"/>
<feGaussianBlur in="BackgroundImage" stdDeviation="12.5"/>
<feComposite in2="SourceAlpha" operator="in" result="effect1_backgroundBlur_1_394"/>
<feBlend mode="normal" in="SourceGraphic" in2="effect1_backgroundBlur_1_394" result="shape"/>
</filter>
</defs>
</svg>
