<svg width="31" height="31" viewBox="0 0 31 31" fill="none" xmlns="http://www.w3.org/2000/svg">
<circle cx="15.5331" cy="15.4667" r="15.4667" fill="#0077B5"/>
<path fill-rule="evenodd" clip-rule="evenodd" d="M11.9525 8.55361C11.9525 9.42444 11.2894 10.1292 10.2525 10.1292C9.25598 10.1292 8.59292 9.42444 8.61344 8.55361C8.59292 7.64046 9.25597 6.95624 10.2724 6.95624C11.2894 6.95624 11.9326 7.64046 11.9525 8.55361ZM8.69681 21.5173V11.3739H11.8492V21.5166H8.69681V21.5173Z" fill="white"/>
<path fill-rule="evenodd" clip-rule="evenodd" d="M14.376 14.611C14.376 13.3458 14.3343 12.2672 14.2926 11.3752H17.0308L17.1763 12.7648H17.2385C17.6534 12.1217 18.6904 11.1476 20.3705 11.1476C22.4443 11.1476 24 12.5167 24 15.5024V21.5186H20.8475V15.8974C20.8475 14.5899 20.3916 13.6985 19.2508 13.6985C18.3793 13.6985 17.8612 14.3 17.6541 14.8803C17.5707 15.0881 17.5297 15.378 17.5297 15.6691V21.5186H14.3772V14.611H14.376Z" fill="white"/>
</svg>
