<svg width="92" height="92" viewBox="0 0 92 92" fill="none" xmlns="http://www.w3.org/2000/svg">
<g filter="url(#filter0_d_1_296)">
<path d="M70 42C70 55.2548 59.2548 66 46 66C32.7452 66 22 55.2548 22 42C22 28.7452 32.7452 18 46 18C59.2548 18 70 28.7452 70 42Z" fill="#FF6457"/>
<path d="M70 42C70 55.2548 59.2548 66 46 66C32.7452 66 22 55.2548 22 42C22 28.7452 32.7452 18 46 18C59.2548 18 70 28.7452 70 42Z" fill="#FF6457"/>
<path fill-rule="evenodd" clip-rule="evenodd" d="M48.6801 34.0006C49.1849 34.0006 49.6889 34.0718 50.1681 34.2326C53.1209 35.1926 54.1849 38.4326 53.2961 41.2646C52.7921 42.7118 51.9681 44.0326 50.8889 45.1118C49.3441 46.6077 47.6489 47.9358 45.8241 49.0798L45.6241 49.2006L45.4161 49.0718C43.5849 47.9358 41.8801 46.6078 40.3209 45.1038C39.2489 44.0246 38.4241 42.7118 37.9121 41.2646C37.0081 38.4326 38.0721 35.1926 41.0569 34.2158C41.2889 34.1358 41.5281 34.0798 41.7681 34.0486H41.8641C42.0889 34.0158 42.3121 34.0006 42.5361 34.0006H42.6241C43.1281 34.0158 43.6161 34.1038 44.0889 34.2646H44.1361C44.1681 34.2798 44.1921 34.2966 44.2081 34.3118C44.3849 34.3686 44.5521 34.4326 44.7121 34.5206L45.0161 34.6566C45.0896 34.6957 45.172 34.7556 45.2433 34.8073C45.2884 34.8401 45.3291 34.8696 45.3601 34.8886C45.3732 34.8963 45.3864 34.904 45.3998 34.9118C45.4684 34.9519 45.5399 34.9936 45.6001 35.0398C46.4889 34.3606 47.5681 33.9926 48.6801 34.0006ZM50.8082 39.7605C51.1362 39.7517 51.4162 39.4885 51.4402 39.1517V39.0565C51.4642 37.9357 50.785 36.9205 49.7522 36.5285C49.4242 36.4157 49.0642 36.5925 48.9442 36.9285C48.8322 37.2645 49.0082 37.6325 49.3442 37.7517C49.857 37.9437 50.2002 38.4485 50.2002 39.0077V39.0325C50.185 39.2157 50.2402 39.3925 50.3522 39.5285C50.4642 39.6645 50.6322 39.7437 50.8082 39.7605Z" fill="#FF6457"/>
<path fill-rule="evenodd" clip-rule="evenodd" d="M48.6801 34.0006C49.1849 34.0006 49.6889 34.0718 50.1681 34.2326C53.1209 35.1926 54.1849 38.4326 53.2961 41.2646C52.7921 42.7118 51.9681 44.0326 50.8889 45.1118C49.3441 46.6077 47.6489 47.9358 45.8241 49.0798L45.6241 49.2006L45.4161 49.0718C43.5849 47.9358 41.8801 46.6078 40.3209 45.1038C39.2489 44.0246 38.4241 42.7118 37.9121 41.2646C37.0081 38.4326 38.0721 35.1926 41.0569 34.2158C41.2889 34.1358 41.5281 34.0798 41.7681 34.0486H41.8641C42.0889 34.0158 42.3121 34.0006 42.5361 34.0006H42.6241C43.1281 34.0158 43.6161 34.1038 44.0889 34.2646H44.1361C44.1681 34.2798 44.1921 34.2966 44.2081 34.3118C44.3849 34.3686 44.5521 34.4326 44.7121 34.5206L45.0161 34.6566C45.0896 34.6957 45.172 34.7556 45.2433 34.8073C45.2884 34.8401 45.3291 34.8696 45.3601 34.8886C45.3732 34.8963 45.3864 34.904 45.3998 34.9118C45.4684 34.9519 45.5399 34.9936 45.6001 35.0398C46.4889 34.3606 47.5681 33.9926 48.6801 34.0006ZM50.8082 39.7605C51.1362 39.7517 51.4162 39.4885 51.4402 39.1517V39.0565C51.4642 37.9357 50.785 36.9205 49.7522 36.5285C49.4242 36.4157 49.0642 36.5925 48.9442 36.9285C48.8322 37.2645 49.0082 37.6325 49.3442 37.7517C49.857 37.9437 50.2002 38.4485 50.2002 39.0077V39.0325C50.185 39.2157 50.2402 39.3925 50.3522 39.5285C50.4642 39.6645 50.6322 39.7437 50.8082 39.7605Z" fill="#FF6457"/>
</g>
<g filter="url(#filter1_d_1_296)">
<path d="M61 42C61 50.2843 54.2843 57 46 57C37.7157 57 31 50.2843 31 42C31 33.7157 37.7157 27 46 27C54.2843 27 61 33.7157 61 42Z" fill="#FF6457"/>
<path d="M61 42C61 50.2843 54.2843 57 46 57C37.7157 57 31 50.2843 31 42C31 33.7157 37.7157 27 46 27C54.2843 27 61 33.7157 61 42Z" fill="#FF917B"/>
<path fill-rule="evenodd" clip-rule="evenodd" d="M47.6751 37.0003C47.9906 37.0003 48.3056 37.0448 48.6051 37.1453C50.4506 37.7453 51.1156 39.7703 50.5601 41.5403C50.2451 42.4448 49.7301 43.2703 49.0556 43.9448C48.0901 44.8798 47.0306 45.7098 45.8901 46.4248L45.7651 46.5003L45.6351 46.4198C44.4906 45.7098 43.4251 44.8798 42.4506 43.9398C41.7806 43.2653 41.2651 42.4448 40.9451 41.5403C40.3801 39.7703 41.0451 37.7453 42.9106 37.1348C43.0556 37.0848 43.2051 37.0498 43.3551 37.0303H43.4151C43.5556 37.0098 43.6951 37.0003 43.8351 37.0003H43.8901C44.2051 37.0098 44.5101 37.0648 44.8056 37.1653H44.8351C44.8551 37.1748 44.8701 37.1853 44.8801 37.1948C44.9906 37.2303 45.0951 37.2703 45.1951 37.3253L45.3851 37.4103C45.431 37.4348 45.4825 37.4722 45.527 37.5046C45.5553 37.5251 45.5807 37.5435 45.6001 37.5553C45.6082 37.5602 45.6165 37.565 45.6249 37.5699C45.6678 37.5949 45.7124 37.621 45.7501 37.6498C46.3056 37.2253 46.9801 36.9953 47.6751 37.0003ZM49.0051 40.6003C49.2101 40.5948 49.3851 40.4303 49.4001 40.2198V40.1603C49.4151 39.4598 48.9906 38.8253 48.3451 38.5803C48.1401 38.5098 47.9151 38.6203 47.8401 38.8303C47.7701 39.0403 47.8801 39.2703 48.0901 39.3448C48.4106 39.4648 48.6251 39.7803 48.6251 40.1298V40.1453C48.6156 40.2598 48.6501 40.3703 48.7201 40.4553C48.7901 40.5403 48.8951 40.5898 49.0051 40.6003Z" fill="#FF6457"/>
<path fill-rule="evenodd" clip-rule="evenodd" d="M47.6751 37.0003C47.9906 37.0003 48.3056 37.0448 48.6051 37.1453C50.4506 37.7453 51.1156 39.7703 50.5601 41.5403C50.2451 42.4448 49.7301 43.2703 49.0556 43.9448C48.0901 44.8798 47.0306 45.7098 45.8901 46.4248L45.7651 46.5003L45.6351 46.4198C44.4906 45.7098 43.4251 44.8798 42.4506 43.9398C41.7806 43.2653 41.2651 42.4448 40.9451 41.5403C40.3801 39.7703 41.0451 37.7453 42.9106 37.1348C43.0556 37.0848 43.2051 37.0498 43.3551 37.0303H43.4151C43.5556 37.0098 43.6951 37.0003 43.8351 37.0003H43.8901C44.2051 37.0098 44.5101 37.0648 44.8056 37.1653H44.8351C44.8551 37.1748 44.8701 37.1853 44.8801 37.1948C44.9906 37.2303 45.0951 37.2703 45.1951 37.3253L45.3851 37.4103C45.431 37.4348 45.4825 37.4722 45.527 37.5046C45.5553 37.5251 45.5807 37.5435 45.6001 37.5553C45.6082 37.5602 45.6165 37.565 45.6249 37.5699C45.6678 37.5949 45.7124 37.621 45.7501 37.6498C46.3056 37.2253 46.9801 36.9953 47.6751 37.0003ZM49.0051 40.6003C49.2101 40.5948 49.3851 40.4303 49.4001 40.2198V40.1603C49.4151 39.4598 48.9906 38.8253 48.3451 38.5803C48.1401 38.5098 47.9151 38.6203 47.8401 38.8303C47.7701 39.0403 47.8801 39.2703 48.0901 39.3448C48.4106 39.4648 48.6251 39.7803 48.6251 40.1298V40.1453C48.6156 40.2598 48.6501 40.3703 48.7201 40.4553C48.7901 40.5403 48.8951 40.5898 49.0051 40.6003Z" fill="#FF917B"/>
</g>
<path d="M48.4742 36.806H52.5871L53.6289 42.6464L48.4742 41.6956V36.806Z" fill="white"/>
<path fill-rule="evenodd" clip-rule="evenodd" d="M49.7724 35.0001C50.3087 35.0001 50.8442 35.0751 51.3534 35.2443C54.4907 36.2549 55.6212 39.6654 54.6768 42.6464C54.1413 44.1697 53.2659 45.56 52.1192 46.696C50.4779 48.2708 48.6768 49.6686 46.7379 50.8728L46.5254 51L46.3044 50.8644C44.3588 49.6686 42.5475 48.2708 40.8908 46.6876C39.7518 45.5516 38.8755 44.1697 38.3315 42.6464C37.371 39.6654 38.5015 36.2549 41.6728 35.2267C41.9193 35.1424 42.1735 35.0835 42.4285 35.0507H42.5305C42.7693 35.0161 43.0065 35.0001 43.2445 35.0001H43.338C43.8735 35.0161 44.3919 35.1088 44.8943 35.278H44.9444C44.9784 35.294 45.0039 35.3117 45.0209 35.3277C45.2088 35.3875 45.3864 35.4549 45.5564 35.5475L45.8794 35.6907C45.9575 35.7319 46.0451 35.7949 46.1208 35.8494C46.1688 35.8839 46.212 35.9149 46.2449 35.9349C46.2588 35.943 46.2729 35.9511 46.2871 35.9593C46.36 36.0015 46.4359 36.0454 46.4999 36.094C47.4443 35.3791 48.5909 34.9917 49.7724 35.0001ZM52.0334 41.0631C52.3819 41.0539 52.6794 40.7768 52.7049 40.4223V40.3221C52.7304 39.1423 52.0088 38.0737 50.9115 37.6611C50.563 37.5423 50.1805 37.7284 50.053 38.0821C49.934 38.4358 50.121 38.8231 50.478 38.9486C51.0228 39.1507 51.3874 39.6821 51.3874 40.2707V40.2968C51.3713 40.4897 51.4299 40.6758 51.5489 40.8189C51.6679 40.9621 51.8464 41.0454 52.0334 41.0631Z" fill="white"/>
<defs>
<filter id="filter0_d_1_296" x="0" y="0" width="92" height="92" filterUnits="userSpaceOnUse" color-interpolation-filters="sRGB">
<feFlood flood-opacity="0" result="BackgroundImageFix"/>
<feColorMatrix in="SourceAlpha" type="matrix" values="0 0 0 0 0 0 0 0 0 0 0 0 0 0 0 0 0 0 127 0" result="hardAlpha"/>
<feOffset dy="4"/>
<feGaussianBlur stdDeviation="11"/>
<feColorMatrix type="matrix" values="0 0 0 0 0 0 0 0 0 0 0 0 0 0 0 0 0 0 0.05 0"/>
<feBlend mode="normal" in2="BackgroundImageFix" result="effect1_dropShadow_1_296"/>
<feBlend mode="normal" in="SourceGraphic" in2="effect1_dropShadow_1_296" result="shape"/>
</filter>
<filter id="filter1_d_1_296" x="9" y="9" width="74" height="74" filterUnits="userSpaceOnUse" color-interpolation-filters="sRGB">
<feFlood flood-opacity="0" result="BackgroundImageFix"/>
<feColorMatrix in="SourceAlpha" type="matrix" values="0 0 0 0 0 0 0 0 0 0 0 0 0 0 0 0 0 0 127 0" result="hardAlpha"/>
<feOffset dy="4"/>
<feGaussianBlur stdDeviation="11"/>
<feColorMatrix type="matrix" values="0 0 0 0 0 0 0 0 0 0 0 0 0 0 0 0 0 0 0.05 0"/>
<feBlend mode="normal" in2="BackgroundImageFix" result="effect1_dropShadow_1_296"/>
<feBlend mode="normal" in="SourceGraphic" in2="effect1_dropShadow_1_296" result="shape"/>
</filter>
</defs>
</svg>
