<svg width="40" height="40" viewBox="0 0 40 40" fill="none" xmlns="http://www.w3.org/2000/svg">
<g clip-path="url(#clip0_1_650)">
<path fill-rule="evenodd" clip-rule="evenodd" d="M20.5 1.99988C30.7172 1.99988 38.9999 10.2827 38.9999 20.5C38.9999 30.7169 30.7172 38.9997 20.5 38.9997C10.2827 38.9997 1.99992 30.7169 1.99992 20.5C1.99992 10.2827 10.2827 1.99988 20.5 1.99988Z" fill="url(#paint0_linear_1_650)"/>
<path d="M21.632 16.012H25.904C26.2133 16.012 26.4747 16.1187 26.688 16.332C26.9013 16.5453 27.008 16.8067 27.008 17.116V20.988C27.008 22.8227 26.624 24.268 25.856 25.324C25.2373 26.188 24.2613 26.972 22.928 27.676C22.6613 27.8147 22.3787 27.8307 22.08 27.724C21.7813 27.628 21.5627 27.4413 21.424 27.164L21.056 26.46C20.9173 26.204 20.8907 25.932 20.976 25.644C21.072 25.356 21.248 25.1373 21.504 24.988C22.1333 24.6253 22.5973 24.2627 22.896 23.9C23.1307 23.612 23.3013 23.3187 23.408 23.02C23.472 22.8493 23.472 22.6893 23.408 22.54C23.344 22.38 23.232 22.252 23.072 22.156C22.912 22.06 22.7307 22.012 22.528 22.012H21.632C21.3227 22.012 21.0613 21.9053 20.848 21.692C20.6347 21.4787 20.528 21.2227 20.528 20.924V17.116C20.528 16.8067 20.6347 16.5453 20.848 16.332C21.072 16.1187 21.3333 16.012 21.632 16.012ZM14.096 16.012H18.368C18.6773 16.012 18.9387 16.1187 19.152 16.332C19.3653 16.5453 19.472 16.8067 19.472 17.116V20.988C19.472 22.8227 19.088 24.268 18.32 25.324C17.7013 26.188 16.7253 26.972 15.392 27.676C15.1253 27.8147 14.8427 27.8307 14.544 27.724C14.256 27.628 14.0373 27.4413 13.888 27.164L13.52 26.46C13.3813 26.204 13.3547 25.932 13.44 25.644C13.536 25.356 13.712 25.1373 13.968 24.988C14.6187 24.6147 15.0827 24.252 15.36 23.9C15.5947 23.612 15.7653 23.3187 15.872 23.02C15.936 22.8493 15.936 22.6893 15.872 22.54C15.808 22.38 15.696 22.252 15.536 22.156C15.376 22.06 15.1947 22.012 14.992 22.012H14.096C13.7973 22.012 13.5413 21.9053 13.328 21.692C13.1147 21.4787 13.008 21.2227 13.008 20.924V17.116C13.008 16.8067 13.1147 16.5453 13.328 16.332C13.5413 16.1187 13.7973 16.012 14.096 16.012Z" fill="white"/>
</g>
<defs>
<linearGradient id="paint0_linear_1_650" x1="7.15277e-07" y1="18.6667" x2="71.5703" y2="37.8751" gradientUnits="userSpaceOnUse">
<stop stop-color="#47C2FF"/>
<stop offset="1" stop-color="#63CBFE" stop-opacity="0.65"/>
</linearGradient>
<clipPath id="clip0_1_650">
<rect width="40" height="40" fill="white"/>
</clipPath>
</defs>
</svg>
