<svg width="76" height="69" viewBox="0 0 76 69" fill="none" xmlns="http://www.w3.org/2000/svg">
<path d="M47.1214 33.3064C46.5631 33.2958 46.0175 33.1376 45.5402 32.8478L37.9502 28.3254L30.4075 32.8478C30.0514 33.0617 29.6567 33.2034 29.2458 33.2647C28.8349 33.326 28.416 33.3058 28.0129 33.2052C27.6099 33.1046 27.2306 32.9256 26.8967 32.6785C26.5628 32.4313 26.2809 32.1208 26.067 31.7647C25.8531 31.4085 25.7115 31.0138 25.6501 30.6029C25.5888 30.192 25.609 29.7731 25.7096 29.3701C25.8102 28.967 25.9892 28.5877 26.2364 28.2538C26.4835 27.9199 26.794 27.638 27.1502 27.4241L37.9502 20.941L48.7501 27.4241C49.3472 27.7784 49.8111 28.3192 50.0703 28.9633C50.3294 29.6073 50.3695 30.3187 50.1842 30.9878C49.999 31.6569 49.5987 32.2464 49.0452 32.6654C48.4917 33.0844 47.8157 33.3097 47.1214 33.3064Z" fill="#40A3F8"/>
<path d="M8.2225 68.9006C7.68249 68.888 7.14825 68.7865 6.64124 68.6002C4.74373 67.9518 2.18209 65.9911 1.10684 60.4567V60.2511C-0.0383222 51.4756 -0.282052 42.606 0.379459 33.7809C1.26496 22.5381 3.16247 17.8576 4.52236 15.3118C7.85243 9.28982 12.8412 4.35042 18.896 1.08043L19.4811 0.748361H20.161C22.2468 0.568509 24.3189 1.2233 25.9226 2.56911C27.5263 3.91492 28.5307 5.84187 28.7156 7.92727L31.467 39.1571C32.2229 44.5638 31.0289 50.0629 28.0989 54.6693C26.7707 56.6617 24.6201 58.401 20.3508 61.864C13.6778 67.3193 10.5153 68.9006 8.2225 68.9006ZM7.32118 59.4131C7.45732 60.542 7.85236 61.6243 8.4755 62.5756C11.3256 61.0772 13.9809 59.2344 16.3818 57.0886C18.7447 55.4043 20.9138 53.4633 22.8491 51.3012C24.9515 47.9027 25.7755 43.8668 25.1736 39.9161L22.4222 8.3384C22.4091 8.12617 22.3534 7.91876 22.2583 7.72857C22.1632 7.53838 22.0307 7.36933 21.8688 7.23152C21.6845 7.07971 21.4683 6.97159 21.2363 6.91527C16.5674 9.58876 12.7348 13.509 10.1674 18.2371C9.48751 19.4546 7.57418 23.0441 6.68868 34.271C6.0415 42.6513 6.25344 51.0759 7.32118 59.4131Z" fill="#40A3F8"/>
<path d="M67.6778 68.9005C65.4008 68.9005 62.2383 67.3192 55.5496 61.848C51.2802 58.3851 49.1297 56.6457 47.8014 54.6533C44.871 50.0297 43.6826 44.5138 44.4492 39.0937L47.1689 7.78482C47.3538 5.69942 48.3582 3.77247 49.9619 2.42666C51.5657 1.08085 53.6377 0.426057 55.7235 0.605909H56.4035L56.9253 1.00122C62.98 4.27122 67.9688 9.21062 71.2989 15.2326C72.6588 17.7784 74.5563 22.4747 75.4418 33.7016C76.1201 42.5304 75.8923 51.4054 74.7619 60.1877V60.3933C73.6866 65.9277 71.1882 67.8885 69.2907 68.5526C68.7765 68.7585 68.2312 68.8762 67.6778 68.9005ZM54.6641 6.94675C54.4321 7.00307 54.2158 7.11119 54.0316 7.26301C53.7119 7.53394 53.5129 7.92067 53.4781 8.33826L50.7267 39.7104C50.115 43.6815 50.9392 47.7407 53.0512 51.1587C54.9866 53.3208 57.1556 55.2618 59.5185 56.9461C61.9194 59.0919 64.5747 60.9347 67.4248 62.4331C68.048 61.4819 68.443 60.3996 68.5792 59.2706C69.6426 50.9543 69.8545 42.5512 69.2117 34.1918C68.3262 23.044 66.4128 19.4545 65.7961 18.3002C63.217 13.5515 59.3611 9.61886 54.6641 6.94675Z" fill="#40A3F8"/>
</svg>
