<svg width="32" height="31" viewBox="0 0 32 31" fill="none" xmlns="http://www.w3.org/2000/svg">
<circle cx="16.0009" cy="15.4667" r="15.4667" fill="#1DA1F2"/>
<path fill-rule="evenodd" clip-rule="evenodd" d="M24.2748 10.142C23.6664 10.4123 23.0116 10.5944 22.3248 10.6766C23.0259 10.2562 23.5643 9.59095 23.8175 8.79825C23.1622 9.18771 22.4346 9.4696 21.6617 9.6224C21.0422 8.96264 20.1591 8.55002 19.1832 8.55002C17.3082 8.55002 15.7879 10.0703 15.7879 11.9453C15.7879 12.2112 15.8182 12.4705 15.8762 12.7193C13.054 12.5781 10.5523 11.226 8.87756 9.17171C8.58519 9.67315 8.41805 10.2562 8.41805 10.8785C8.41805 12.0562 9.01657 13.0955 9.92842 13.7045C9.37127 13.6869 8.84832 13.534 8.38991 13.2797V13.3222C8.38991 14.9677 9.56103 16.3397 11.1133 16.6524C10.8287 16.7297 10.5286 16.7716 10.2191 16.7716C10.0001 16.7716 9.78721 16.7501 9.57979 16.7104C10.0117 18.0591 11.2661 19.041 12.7517 19.0686C11.59 19.9788 10.1259 20.5222 8.53499 20.5222C8.26028 20.5222 7.98998 20.5062 7.72464 20.4742C9.2273 21.4373 11.0118 22 12.9293 22C19.1744 22 22.5896 16.8262 22.5896 12.3398C22.5896 12.1925 22.5868 12.0457 22.5796 11.9007C23.2438 11.4207 23.8197 10.8228 24.2748 10.142Z" fill="white"/>
</svg>
